<svg t="1711089722413" class="icon" viewBox="0 0 1024 1024" version="1.1" xmlns="http://www.w3.org/2000/svg" p-id="17020" xmlns:xlink="http://www.w3.org/1999/xlink" width="200" height="200">
  <defs>
    <linearGradient id="Gradient1">
        <stop offset="0%" stop-color="#e65d4e" cx="0.5" cy="0.5" r="0.5" fx="0.25" fy="0.25" />
        <stop offset="100%" stop-color="#e120d7" />
    </linearGradient>
  </defs>
  <path
    d="M426.666667 736 426.666667 597.333333 128 597.333333 128 426.666667 426.666667 426.666667 426.666667 288 650.666667 512 426.666667 736M341.333333 85.333333 725.333333 85.333333C772.266667 85.333333 810.666667 123.733333 810.666667 170.666667L810.666667 853.333333C810.666667 900.266667 772.266667 938.666667 725.333333 938.666667L341.333333 938.666667C294.4 938.666667 256 900.266667 256 853.333333L256 682.666667 341.333333 682.666667 341.333333 853.333333 725.333333 853.333333 725.333333 170.666667 341.333333 170.666667 341.333333 341.333333 256 341.333333 256 170.666667C256 123.733333 294.4 85.333333 341.333333 85.333333Z"
    p-id="17021"
    fill="url(#Gradient1)"
  ></path>
</svg>