<?xml version="1.0" standalone="no"?><!DOCTYPE svg PUBLIC "-//W3C//DTD SVG 1.1//EN" "http://www.w3.org/Graphics/SVG/1.1/DTD/svg11.dtd"><svg t="1710859119759" class="icon" viewBox="0 0 1024 1024" version="1.1" xmlns="http://www.w3.org/2000/svg" p-id="17104" xmlns:xlink="http://www.w3.org/1999/xlink" width="200" height="200"><path d="M574.464 453.802667l422.4 422.4a85.333333 85.333333 0 1 1-120.661333 120.661333l-422.4-422.4a85.333333 85.333333 0 1 1 120.661333-120.661333z m-316.928 125.226666l-27.690667 110.933334a42.666667 42.666667 0 0 0 10.709334 39.978666L320 812.202667l-110.933333-27.690667a42.666667 42.666667 0 0 0-39.978667 10.709333L86.869333 874.666667l27.648-110.933334a42.666667 42.666667 0 0 0-10.709333-39.978666L24.362667 641.536l110.933333 27.648a42.666667 42.666667 0 0 0 39.978667-10.709333l82.261333-79.445334z m425.514667-444.16l56.021333 74.325334a32 32 0 0 0 28.330667 12.629333l92.757333-8.106667-74.368 56.021334a32 32 0 0 0-12.629333 28.330666l8.106666 92.757334L725.333333 316.458667a32 32 0 0 0-28.373333-12.629334l-92.757333 8.106667L678.528 256a32 32 0 0 0 12.629333-28.373333l-8.106666-92.757334zM264.192 28.586667l25.386667 88.490666a153.6 153.6 0 0 0 105.301333 105.301334l88.490667 25.386666a8.533333 8.533333 0 0 1 0 16.384l-88.490667 25.386667a153.6 153.6 0 0 0-105.301333 105.301333l-25.386667 88.490667a8.533333 8.533333 0 0 1-16.384 0l-25.386667-88.490667a153.6 153.6 0 0 0-105.301333-105.301333L28.586667 264.192a8.533333 8.533333 0 0 1 0-16.384l88.490666-25.386667a153.6 153.6 0 0 0 105.301334-105.301333L247.808 28.586667a8.533333 8.533333 0 0 1 16.384 0z" fill="#1B2337" p-id="17105"></path></svg>